<mxfile host="app.diagrams.net" agent="Mozilla/5.0 (Windows NT 10.0; Win64; x64) AppleWebKit/537.36 (KHTML, like Gecko) Chrome/140.0.0.0 Safari/537.36 Edg/140.0.0.0" version="28.2.3">
  <diagram name="Page-1" id="xqz9bcCORzIzxERZBR4c">
    <mxGraphModel dx="1418" dy="786" grid="0" gridSize="10" guides="1" tooltips="1" connect="1" arrows="1" fold="1" page="1" pageScale="1" pageWidth="850" pageHeight="1100" math="0" shadow="0">
      <root>
        <mxCell id="0" />
        <mxCell id="1" parent="0" />
        <mxCell id="RQ6o2ah_zhozJDsj1HfJ-1" value="&lt;font style=&quot;font-size: 24px;&quot;&gt;Action 4 :&amp;nbsp;Automated Ticket Handling&lt;/font&gt;" style="rounded=0;whiteSpace=wrap;html=1;fillColor=#cce5ff;strokeColor=#36393d;" vertex="1" parent="1">
          <mxGeometry x="17" y="8" width="816" height="41" as="geometry" />
        </mxCell>
        <mxCell id="RQ6o2ah_zhozJDsj1HfJ-2" value="Embedding Model Used :&amp;nbsp;text-embedding-005 from Vertex AI in BigQuery" style="text;html=1;align=center;verticalAlign=middle;resizable=0;points=[];autosize=1;strokeColor=#666666;fillColor=#f5f5f5;fontColor=#333333;" vertex="1" parent="1">
          <mxGeometry x="413" y="58" width="408" height="26" as="geometry" />
        </mxCell>
        <mxCell id="RQ6o2ah_zhozJDsj1HfJ-3" value="LLM Used : Gemini 2.5 Flash with Vertex AI connection in BigQuery&amp;nbsp;" style="text;html=1;align=center;verticalAlign=middle;resizable=0;points=[];autosize=1;strokeColor=#666666;fillColor=#f5f5f5;fontColor=#333333;" vertex="1" parent="1">
          <mxGeometry x="17" y="58" width="380" height="26" as="geometry" />
        </mxCell>
        <mxCell id="RQ6o2ah_zhozJDsj1HfJ-6" value="" style="edgeStyle=orthogonalEdgeStyle;rounded=0;orthogonalLoop=1;jettySize=auto;html=1;" edge="1" parent="1" source="RQ6o2ah_zhozJDsj1HfJ-4" target="RQ6o2ah_zhozJDsj1HfJ-5">
          <mxGeometry relative="1" as="geometry" />
        </mxCell>
        <mxCell id="RQ6o2ah_zhozJDsj1HfJ-4" value="&lt;font style=&quot;font-size: 14px;&quot;&gt;Customer Ticket table with issue description and the image of the issue snapped by customer&lt;/font&gt;" style="rounded=1;whiteSpace=wrap;html=1;fillColor=#ffe6cc;strokeColor=#d79b00;" vertex="1" parent="1">
          <mxGeometry x="190" y="134" width="196" height="83" as="geometry" />
        </mxCell>
        <mxCell id="RQ6o2ah_zhozJDsj1HfJ-10" value="" style="edgeStyle=orthogonalEdgeStyle;rounded=0;orthogonalLoop=1;jettySize=auto;html=1;" edge="1" parent="1" target="RQ6o2ah_zhozJDsj1HfJ-9">
          <mxGeometry relative="1" as="geometry">
            <mxPoint x="285.5" y="310" as="sourcePoint" />
            <Array as="points">
              <mxPoint x="285.5" y="363" />
              <mxPoint x="396.5" y="363" />
            </Array>
          </mxGeometry>
        </mxCell>
        <mxCell id="RQ6o2ah_zhozJDsj1HfJ-5" value="&lt;b&gt;&lt;font style=&quot;font-size: 14px;&quot;&gt;Multimodal Data Prep&lt;/font&gt;&lt;/b&gt;&lt;div&gt;Convert the issue Images using OBJ.FETCH_METADATA and&amp;nbsp;OBJ.MAKE_REF&amp;nbsp;&lt;/div&gt;" style="whiteSpace=wrap;html=1;fillColor=#fff2cc;strokeColor=#d6b656;rounded=1;" vertex="1" parent="1">
          <mxGeometry x="191" y="257" width="194" height="92" as="geometry" />
        </mxCell>
        <mxCell id="RQ6o2ah_zhozJDsj1HfJ-7" value="&lt;span style=&quot;font-size: 14px;&quot;&gt;&lt;b&gt;Customer Profile&lt;/b&gt;&lt;/span&gt;&lt;div&gt;&lt;font style=&quot;font-size: 12px;&quot;&gt;Collect customer demographics, location, home details etc from customer_df&lt;/font&gt;&lt;/div&gt;" style="rounded=1;whiteSpace=wrap;html=1;fillColor=#ffe6cc;strokeColor=#d79b00;" vertex="1" parent="1">
          <mxGeometry x="479" y="170" width="196" height="89" as="geometry" />
        </mxCell>
        <mxCell id="RQ6o2ah_zhozJDsj1HfJ-22" value="" style="edgeStyle=orthogonalEdgeStyle;rounded=0;orthogonalLoop=1;jettySize=auto;html=1;" edge="1" parent="1" source="RQ6o2ah_zhozJDsj1HfJ-9" target="RQ6o2ah_zhozJDsj1HfJ-21">
          <mxGeometry relative="1" as="geometry" />
        </mxCell>
        <mxCell id="RQ6o2ah_zhozJDsj1HfJ-9" value="Using &lt;b&gt;AI.GENERATE_TABLE &lt;/b&gt;create a table for all tickets&amp;nbsp;based on the ticket issue description and image OBJ create following:&lt;div&gt;&lt;br&gt;&lt;div style=&quot;text-align: left;&quot;&gt;1. device with issue&lt;/div&gt;&lt;div style=&quot;text-align: left;&quot;&gt;2. issue_type (software/hardware)&lt;/div&gt;&lt;/div&gt;&lt;div style=&quot;text-align: left;&quot;&gt;3. Urgency Score&lt;/div&gt;&lt;div style=&quot;text-align: left;&quot;&gt;4. Need Site Visit by Technician&lt;/div&gt;&lt;div style=&quot;text-align: left;&quot;&gt;5. Technician Report (If site visit needed)&lt;/div&gt;&lt;div style=&quot;text-align: left;&quot;&gt;6. DIY instructions ( If site visit not needed)&lt;/div&gt;" style="whiteSpace=wrap;html=1;fillColor=#d5e8d4;strokeColor=#82b366;rounded=1;" vertex="1" parent="1">
          <mxGeometry x="266.5" y="392" width="320" height="189" as="geometry" />
        </mxCell>
        <mxCell id="RQ6o2ah_zhozJDsj1HfJ-13" style="edgeStyle=orthogonalEdgeStyle;rounded=0;orthogonalLoop=1;jettySize=auto;html=1;entryX=0.581;entryY=0.012;entryDx=0;entryDy=0;entryPerimeter=0;" edge="1" parent="1" target="RQ6o2ah_zhozJDsj1HfJ-9">
          <mxGeometry relative="1" as="geometry">
            <mxPoint x="574.5" y="220" as="sourcePoint" />
          </mxGeometry>
        </mxCell>
        <mxCell id="RQ6o2ah_zhozJDsj1HfJ-21" value="&lt;div style=&quot;text-align: center;&quot;&gt;&lt;b style=&quot;background-color: transparent; color: light-dark(rgb(0, 0, 0), rgb(255, 255, 255));&quot;&gt;&lt;font style=&quot;font-size: 14px;&quot;&gt;Save generated table to database.&amp;nbsp;&lt;/font&gt;&lt;/b&gt;&lt;/div&gt;&lt;div&gt;&lt;span style=&quot;font-size: 14px;&quot;&gt;&lt;b&gt;&lt;br&gt;&lt;/b&gt;&lt;/span&gt;&lt;div&gt;-&amp;nbsp; Agents can take customers through DIY instructions to solve issues that don&#39;t need Site Visit.&lt;/div&gt;&lt;div&gt;&lt;br&gt;&lt;/div&gt;&lt;div&gt;- Technicians gets a detailed report of what issue is, what tools to carry, possible technical solutions etc. for all the issues that needs a site visit&lt;/div&gt;&lt;div&gt;&lt;br&gt;&lt;/div&gt;&lt;/div&gt;" style="whiteSpace=wrap;html=1;fillColor=#fff2cc;strokeColor=#d6b656;rounded=1;align=left;" vertex="1" parent="1">
          <mxGeometry x="269" y="624" width="315" height="173" as="geometry" />
        </mxCell>
      </root>
    </mxGraphModel>
  </diagram>
</mxfile>
